<?xml version="1.0" standalone="no"?>
<!DOCTYPE svg PUBLIC "-//W3C//DTD SVG 20010904//EN"
 "http://www.w3.org/TR/2001/REC-SVG-20010904/DTD/svg10.dtd">
<svg version="1.0" xmlns="http://www.w3.org/2000/svg"
 width="1840.000000pt" height="859.000000pt" viewBox="0 0 1840.000000 859.000000"
 preserveAspectRatio="xMidYMid meet">

<g transform="translate(0.000000,859.000000) scale(0.100000,-0.100000)"
fill="#000000" stroke="none">
<path d="M0 4295 l0 -4295 9200 0 9200 0 0 4295 0 4295 -9200 0 -9200 0 0
-4295z m8897 3429 c2 -6 -15 -19 -38 -28 l-42 -17 7 -67 c3 -37 10 -87 15
-112 5 -25 20 -103 35 -175 14 -71 26 -137 26 -145 0 -17 -52 -35 -131 -46
l-47 -6 -78 80 c-44 43 -119 120 -168 171 -49 50 -90 91 -92 91 -7 0 -4 -42 5
-79 5 -20 15 -63 22 -96 19 -96 38 -158 52 -167 6 -4 29 -8 49 -8 38 0 57 -13
37 -26 -10 -6 -233 -54 -251 -54 -22 0 -3 37 25 50 25 12 33 22 35 47 3 30
-16 154 -37 248 -6 22 -15 69 -22 105 -14 76 -23 90 -55 90 -14 0 -24 6 -24
14 0 15 13 18 184 51 89 18 72 25 181 -75 85 -77 156 -142 184 -165 l23 -20
-7 35 c-28 142 -51 219 -69 233 -6 4 -27 6 -46 5 -25 -2 -36 1 -38 13 -3 19
31 30 183 56 17 3 32 7 35 9 8 9 43 -1 47 -12z m488 -2 c33 -6 41 -12 52 -42
7 -19 28 -80 48 -135 37 -102 50 -136 66 -167 5 -10 9 -23 9 -28 0 -6 16 -45
37 -86 30 -62 41 -76 65 -81 20 -4 28 -11 28 -26 0 -20 -3 -20 -152 -12 -84 4
-173 7 -198 7 -57 -2 -79 10 -61 32 8 9 24 16 37 16 30 0 31 21 3 95 l-20 55
-88 0 -87 0 -24 -66 c-25 -73 -21 -84 33 -84 20 0 27 -5 27 -20 0 -20 -5 -21
-112 -18 -109 3 -113 4 -116 26 -3 16 2 22 16 22 11 0 28 3 37 6 16 7 91 155
170 334 20 47 43 99 50 115 7 17 15 38 19 48 4 14 17 17 63 16 32 0 76 -3 98
-7z m490 -51 c22 -5 94 -23 160 -41 66 -17 162 -42 213 -54 52 -13 99 -29 105
-35 11 -11 -1 -80 -25 -143 -13 -34 -45 -37 -53 -5 -3 12 -10 44 -15 71 -6 27
-19 55 -28 62 -20 16 -48 18 -57 5 -5 -10 -50 -174 -66 -246 -5 -22 -14 -58
-19 -80 -28 -103 -29 -109 -17 -123 6 -8 22 -18 35 -23 25 -10 27 -47 1 -40
-8 2 -30 7 -49 12 -122 27 -303 78 -312 87 -18 18 1 31 36 25 38 -6 53 11 67
77 15 69 89 352 95 362 9 15 -16 28 -53 28 -26 0 -37 -8 -68 -50 -37 -51 -49
-57 -74 -41 -12 8 -12 19 3 78 10 37 20 74 22 82 4 14 16 13 99 -8z m698 -220
c34 -17 98 -46 142 -65 58 -25 80 -40 80 -53 0 -14 -7 -17 -33 -15 -35 4 -26
17 -112 -173 -5 -11 -29 -63 -53 -117 -63 -135 -64 -138 -37 -158 14 -11 21
-23 17 -33 -5 -13 -31 -5 -158 53 -83 37 -156 73 -161 78 -15 15 1 34 23 27
11 -4 27 -1 35 6 14 11 23 29 76 149 45 101 62 138 89 194 34 71 35 77 9 101
-49 44 -4 47 83 6z m-2626 -11 c32 -19 73 -88 73 -123 0 -29 -18 -59 -58 -95
l-37 -33 41 6 c57 9 98 -11 164 -79 44 -46 60 -56 87 -56 25 0 33 -4 33 -18 0
-14 -28 -33 -104 -70 -57 -29 -114 -52 -128 -52 -34 0 -61 26 -99 96 -46 86
-50 89 -94 73 -20 -7 -40 -18 -45 -24 -4 -6 10 -44 34 -90 38 -75 43 -80 76
-83 79 -7 64 -20 -155 -131 -66 -34 -125 -61 -132 -61 -20 0 -15 27 8 44 11 8
19 20 17 28 -2 7 -32 69 -67 138 -153 298 -131 265 -179 268 -57 4 -51 19 24
58 224 118 400 204 415 204 10 0 21 5 24 10 10 17 68 11 102 -10z m3130 -262
c125 -46 273 -171 316 -266 45 -101 17 -219 -77 -316 -66 -68 -98 -81 -191
-80 -72 0 -87 3 -155 38 -144 73 -245 175 -280 283 -28 89 15 209 104 291 30
26 69 53 87 59 56 18 134 15 196 -9z m-3874 -130 c8 -13 25 -33 37 -46 12 -12
20 -30 18 -40 -4 -18 -17 -19 -103 -7 -46 6 -53 4 -92 -26 -24 -18 -43 -37
-43 -42 0 -11 92 -128 115 -147 23 -19 55 13 55 57 0 55 26 54 77 -3 55 -62
53 -79 -9 -79 -29 0 -53 -6 -63 -16 -14 -14 -9 -22 51 -92 36 -42 70 -77 75
-77 18 0 80 54 95 82 8 15 14 54 14 86 0 81 17 86 75 19 25 -28 44 -56 42 -62
-2 -5 -64 -61 -137 -122 l-134 -113 -91 0 -91 0 -61 73 c-33 39 -75 88 -92
107 -17 19 -46 54 -64 77 -37 48 -54 58 -73 42 -14 -12 -44 -6 -44 9 0 4 59
57 132 117 73 61 161 136 197 168 36 31 73 57 82 57 9 0 23 -10 32 -22z m2217
-168 c192 -23 251 -33 371 -60 285 -64 597 -196 835 -353 l101 -67 357 0 c196
0 357 -1 358 -2 1 -2 5 -181 8 -398 5 -382 6 -396 26 -425 23 -32 134 -246
134 -258 0 -4 9 -29 21 -55 12 -26 25 -56 30 -67 33 -75 103 -325 128 -455 30
-159 51 -396 46 -520 -15 -378 -63 -608 -198 -955 -122 -314 -359 -663 -614
-906 -400 -381 -895 -622 -1453 -706 -159 -24 -577 -24 -736 0 -106 16 -255
47 -319 67 -16 5 -61 19 -100 30 -38 11 -79 25 -90 29 -11 5 -36 15 -55 21
-204 72 -505 245 -709 408 -117 93 -302 277 -394 392 -79 99 -207 284 -207
299 0 6 -3 11 -7 11 -5 0 -13 10 -19 23 -6 12 -40 78 -75 147 -36 69 -73 148
-83 175 -10 28 -34 93 -53 145 -141 388 -179 850 -107 1310 41 263 179 638
318 865 l31 50 5 385 5 385 361 5 361 5 34 26 c139 105 427 248 642 320 126
42 353 95 462 109 50 6 117 15 150 19 87 12 336 13 435 1z m2255 -147 c22 -26
61 -71 88 -100 35 -40 46 -59 42 -76 -23 -100 -64 -290 -70 -325 -7 -41 -6
-43 11 -34 28 15 174 168 174 182 0 6 -9 25 -21 41 -19 27 -19 49 1 49 15 0
170 -183 170 -201 0 -25 -6 -24 -42 6 -16 14 -33 25 -37 25 -17 0 -86 -54
-203 -157 -182 -162 -182 -162 -198 -163 -9 0 -24 10 -34 23 -11 12 -34 39
-53 60 -41 46 -42 37 33 303 30 106 54 194 54 198 0 16 -25 3 -63 -33 -118
-109 -119 -111 -169 -111 -27 0 -48 4 -48 9 0 5 19 24 43 43 55 43 226 194
254 225 21 22 22 26 8 47 -15 22 -11 36 9 36 6 0 29 -21 51 -47z m-4944 -145
c66 -48 76 -65 55 -86 -13 -13 -22 -13 -75 2 -56 16 -62 16 -85 1 -21 -14 -42
-45 -34 -50 2 0 44 -33 93 -71 50 -39 113 -87 140 -108 109 -83 125 -102 125
-154 0 -44 -6 -56 -71 -140 -38 -51 -74 -92 -79 -92 -18 0 -21 22 -6 45 9 13
16 31 16 39 0 13 -334 285 -361 295 -15 5 -38 -30 -39 -58 0 -13 12 -45 26
-72 28 -50 27 -79 -3 -79 -22 0 -133 87 -133 103 0 7 27 46 60 87 33 41 114
144 180 228 66 83 123 152 126 152 3 0 33 -19 65 -42z m4499 -158 c0 -6 -11
-10 -25 -10 -23 0 -34 18 -19 33 9 8 44 -11 44 -23z m-4954 -343 c3 -8 0 -26
-6 -42 -17 -45 -8 -51 204 -149 54 -25 100 -46 102 -46 2 0 32 -13 66 -30 34
-16 67 -30 75 -30 19 0 17 -12 -17 -85 -16 -36 -30 -70 -30 -75 0 -16 -34 -25
-165 -45 -265 -41 -316 -50 -316 -60 1 -5 36 -25 78 -43 43 -18 92 -39 108
-47 17 -7 50 -20 75 -29 43 -15 45 -14 67 6 13 12 23 27 23 35 0 7 2 13 4 13
2 0 11 3 20 6 20 8 21 -22 2 -62 -8 -16 -24 -51 -36 -79 -45 -102 -53 -115
-67 -115 -13 0 -15 9 -10 45 5 34 3 48 -10 61 -14 13 -215 114 -228 114 -3 0
-32 13 -65 29 -81 39 -113 46 -130 26 -16 -19 -40 -20 -40 0 0 15 30 84 79
184 28 59 29 59 171 90 30 7 73 16 95 21 22 5 64 14 93 20 28 7 52 16 52 21 0
5 -5 9 -10 9 -6 0 -29 8 -53 19 -125 55 -197 75 -197 54 0 -5 -10 -20 -23 -35
-15 -19 -26 -25 -35 -19 -11 6 -6 24 21 82 19 41 44 95 55 122 21 47 38 59 48
34z m5385 -178 c21 -21 28 -22 163 -15 78 3 195 13 261 21 175 21 158 26 204
-62 23 -43 41 -82 41 -88 0 -5 -30 -44 -67 -85 -103 -118 -264 -320 -274 -346
-4 -13 -6 -37 -3 -53 7 -35 -8 -47 -28 -23 -9 9 -54 92 -102 185 -74 143 -84
168 -69 174 11 4 21 -1 31 -15 8 -12 20 -22 27 -22 16 0 95 88 95 106 0 7 -15
41 -34 76 -30 58 -36 63 -69 66 -73 6 -145 -30 -107 -53 6 -3 10 -17 10 -31 0
-47 -29 -23 -70 59 -23 45 -46 86 -51 92 -14 14 -11 35 6 35 8 0 25 -10 36
-21z m865 -611 c4 -7 11 -30 15 -53 4 -22 13 -62 19 -90 7 -27 16 -68 21 -90
22 -93 23 -115 5 -115 -9 0 -19 8 -23 18 -16 45 -25 44 -238 -7 -44 -11 -111
-27 -150 -36 -89 -21 -98 -32 -78 -92 14 -39 22 -48 67 -69 28 -13 58 -24 66
-24 21 0 40 -20 40 -41 0 -18 -16 -22 -121 -34 -55 -7 -56 -6 -66 22 -6 15
-16 53 -22 83 -7 30 -21 91 -31 135 -11 44 -28 120 -40 169 -12 49 -19 95 -16
102 8 22 26 16 36 -11 12 -31 18 -31 170 5 69 16 167 39 218 52 87 20 92 23
92 48 0 38 20 54 36 28z m-6601 -40 c1 -15 3 -29 5 -31 5 -4 384 -103 437
-115 17 -3 25 2 34 22 14 29 27 33 36 11 6 -16 -41 -216 -58 -247 -5 -10 -9
-31 -9 -48 0 -19 -6 -33 -16 -37 -17 -6 -35 13 -28 31 2 6 0 17 -4 23 -7 11
-150 52 -322 93 -19 5 -53 13 -75 19 -48 12 -72 7 -80 -20 -4 -10 -13 -19 -22
-19 -13 0 -14 8 -9 43 4 23 11 56 16 72 11 35 40 148 47 185 9 45 13 52 30 48
12 -2 18 -13 18 -30z m150 -818 l27 -80 73 0 c41 0 76 -4 79 -9 4 -5 -21 -29
-54 -53 -35 -25 -60 -51 -60 -62 0 -10 10 -47 22 -82 12 -35 19 -66 15 -70 -3
-3 -33 15 -66 40 -33 25 -66 46 -73 46 -8 0 -41 -20 -74 -45 -32 -24 -65 -45
-71 -45 -15 0 -17 21 -4 36 4 5 18 37 29 72 l21 63 -59 42 c-80 56 -76 71 16
68 49 -2 74 2 81 11 6 7 20 43 32 81 13 37 26 67 31 67 5 0 20 -36 35 -80z
m6335 2 l25 -77 78 -3 c84 -3 98 -15 50 -44 -16 -9 -43 -30 -62 -45 l-34 -29
22 -67 c34 -101 28 -107 -51 -48 l-66 50 -68 -49 c-74 -54 -84 -58 -84 -35 0
13 4 24 31 90 23 58 22 61 -40 110 -33 26 -58 52 -55 56 3 5 35 9 72 9 37 0
72 4 78 8 6 4 19 32 29 62 21 64 33 90 43 90 4 0 18 -35 32 -78z m-6097 -554
c3 -13 17 -67 31 -122 14 -54 26 -104 26 -112 0 -7 -27 -33 -61 -59 -34 -26
-75 -59 -93 -75 -17 -15 -44 -39 -61 -53 -16 -14 -27 -28 -24 -31 3 -3 66 -10
140 -15 74 -6 142 -13 151 -16 21 -8 22 -11 78 -235 12 -46 -4 -64 -29 -31
-22 28 -18 29 -236 -29 -88 -23 -174 -45 -191 -50 -47 -11 -54 -18 -54 -51 0
-49 -32 -34 -46 21 -7 25 -23 88 -37 140 -13 52 -27 105 -30 118 -8 33 19 40
42 11 l19 -24 114 29 c191 49 216 57 193 66 -11 4 -90 10 -175 14 -177 8 -208
11 -218 20 -12 13 -32 90 -24 97 10 9 268 199 311 229 40 28 27 38 -28 21 -20
-6 -81 -24 -136 -41 -130 -38 -148 -51 -139 -96 5 -26 2 -35 -10 -40 -9 -4
-19 -5 -21 -3 -6 7 -55 195 -55 213 0 25 21 19 50 -15 l26 -32 55 13 c134 32
327 82 357 91 26 9 32 16 32 39 0 44 33 50 43 8z m6081 -128 c62 -24 126 -80
153 -137 21 -45 25 -213 6 -278 -37 -125 -73 -266 -73 -284 0 -23 -27 -54 -41
-46 -5 4 -9 19 -9 34 0 32 8 29 -240 95 -236 63 -215 61 -239 27 -12 -16 -21
-38 -21 -49 0 -12 -4 -24 -10 -27 -20 -12 -9 -45 23 -68 17 -14 111 -68 207
-122 200 -110 210 -117 193 -143 -6 -10 -23 -42 -38 -71 -15 -28 -35 -55 -44
-60 -14 -7 -259 -27 -426 -34 -27 -1 -50 -6 -50 -10 0 -16 269 -157 298 -157
13 0 30 12 42 30 21 32 55 41 55 14 0 -9 -8 -28 -19 -42 -10 -15 -35 -58 -55
-96 -39 -75 -54 -96 -67 -96 -12 0 -11 51 0 69 15 23 3 38 -65 81 -74 46 -100
61 -267 154 -54 29 -82 33 -91 11 -7 -19 -36 -20 -36 -1 0 25 122 235 139 240
16 5 111 17 280 36 46 5 88 13 93 18 12 12 -184 112 -218 112 -12 0 -31 -11
-42 -25 -20 -25 -52 -34 -52 -14 0 13 120 228 131 235 5 3 9 17 9 31 0 15 5
40 10 57 6 17 30 103 54 191 25 88 52 177 61 198 20 48 81 116 120 133 47 21
165 17 229 -6z m-5898 -729 c116 -52 234 -248 234 -388 0 -110 -58 -193 -176
-253 -70 -35 -177 -40 -236 -11 -79 39 -149 119 -201 231 -26 55 -30 78 -31
150 -1 76 2 90 26 132 42 70 121 126 218 154 53 15 108 10 166 -15z m417 -555
c48 -52 87 -100 87 -108 0 -8 -13 -83 -30 -168 -16 -85 -32 -167 -34 -182 -3
-16 -1 -28 4 -28 15 0 138 121 162 158 l21 34 -23 29 c-20 29 -21 59 -2 59 13
0 182 -185 182 -199 0 -17 -25 -13 -54 10 -23 18 -31 19 -54 10 -16 -7 -102
-81 -193 -166 -90 -85 -171 -154 -179 -154 -23 -1 -120 114 -120 141 0 13 13
75 30 138 16 63 36 144 45 180 8 36 20 80 26 98 22 68 14 62 -177 -126 -35
-35 -64 -72 -64 -82 0 -9 9 -29 20 -43 25 -31 25 -47 1 -47 -22 0 -181 171
-181 194 0 22 23 20 45 -4 39 -43 57 -31 283 179 105 98 108 103 87 154 -5 13
-2 17 12 17 12 0 54 -37 106 -94z m4653 19 c-3 -13 -4 -30 -1 -38 3 -7 66 -69
140 -136 138 -127 165 -165 165 -232 0 -59 -60 -153 -153 -239 -77 -70 -164
-98 -220 -69 -36 19 -103 77 -240 207 -67 64 -73 66 -120 47 -15 -6 -18 -4
-15 13 4 25 188 230 207 231 10 1 12 -8 8 -36 -6 -36 -4 -39 81 -118 239 -223
264 -240 309 -201 49 42 24 76 -211 290 -94 87 -98 89 -127 79 -62 -24 -44 14
61 127 98 105 128 125 116 75z m-4046 -592 c135 -100 209 -161 206 -170 -3 -7
-20 -33 -38 -58 -23 -30 -39 -44 -53 -42 -17 2 -21 11 -25 74 -5 75 -3 72 -72
123 -22 17 -28 18 -40 6 -35 -37 -108 -141 -108 -154 0 -17 56 -35 77 -24 50
26 56 -19 11 -82 -41 -57 -71 -59 -76 -6 -3 33 -26 70 -43 70 -4 0 -24 -24
-45 -52 -22 -29 -47 -62 -56 -72 -34 -38 -14 -77 57 -111 40 -18 58 -18 109 0
21 7 44 11 51 8 20 -7 26 -31 12 -45 -7 -7 -25 -30 -40 -50 -15 -21 -32 -38
-37 -38 -9 0 -89 54 -130 87 -8 7 -82 62 -165 123 -82 61 -151 115 -153 121
-6 15 25 21 46 10 16 -9 24 -6 41 12 36 39 261 349 261 360 0 6 -7 18 -16 28
-15 17 -12 39 6 39 5 0 104 -70 220 -157z m3553 93 c32 -32 79 -117 73 -132
-7 -19 -29 -16 -103 17 l-52 23 -47 -24 c-25 -14 -48 -30 -51 -37 -6 -15 107
-183 123 -183 6 0 24 10 39 22 24 19 27 26 22 65 -3 31 0 48 10 59 19 19 31 9
75 -59 18 -29 41 -61 50 -71 40 -44 9 -68 -52 -41 -40 18 -71 16 -104 -8 -19
-14 -17 -18 36 -93 57 -81 64 -85 117 -68 19 6 22 4 19 -12 -4 -22 -285 -217
-299 -208 -14 8 -10 34 6 40 8 4 15 14 15 23 -1 9 -58 99 -128 201 l-128 185
-38 -3 c-30 -2 -37 0 -34 12 3 13 411 303 430 305 4 1 13 -5 21 -13z m-3200
-315 c37 -17 70 -31 72 -31 3 0 24 -9 48 -20 23 -10 103 -46 177 -79 74 -33
136 -64 138 -69 1 -5 -12 -41 -29 -81 -27 -58 -37 -71 -56 -71 -13 0 -23 6
-23 13 -5 152 -5 151 -51 162 -24 6 -28 1 -67 -84 -23 -50 -42 -93 -42 -96 0
-2 -11 -28 -24 -57 -13 -29 -36 -82 -52 -117 l-28 -64 32 -27 c34 -28 42 -50
17 -50 -13 0 -40 11 -190 80 -33 15 -76 33 -96 40 -52 19 -73 36 -65 56 4 11
12 14 24 9 60 -26 58 -27 113 100 4 11 24 55 44 98 19 43 35 80 35 82 0 2 14
34 31 70 18 36 29 68 26 71 -3 3 -23 8 -44 10 -34 5 -43 1 -82 -35 -46 -43
-62 -49 -79 -28 -7 9 -4 26 13 62 13 28 24 55 24 62 2 23 31 43 49 34 9 -5 47
-23 85 -40z m2457 -143 c0 -7 -13 -20 -28 -29 -30 -17 -41 -42 -91 -204 -44
-144 -44 -151 -18 -235 l23 -75 52 -3 c53 -3 66 -14 34 -31 -15 -8 -223 -64
-375 -102 -66 -16 -78 8 -19 39 33 17 37 24 35 53 -1 19 -10 59 -20 89 -16 48
-30 65 -128 153 -122 109 -169 142 -190 134 -20 -8 -39 17 -23 30 7 6 87 29
178 53 220 57 228 59 234 52 14 -13 4 -32 -19 -38 -14 -3 -25 -11 -25 -17 0
-16 162 -177 177 -177 13 0 14 3 33 115 6 39 14 83 17 98 5 27 4 28 -33 25
-29 -2 -39 1 -42 13 -2 10 6 19 20 22 13 3 57 14 98 25 90 24 110 26 110 10z
m-1788 -99 c51 -12 96 -24 100 -28 5 -4 22 -79 38 -166 35 -181 54 -266 77
-343 13 -44 21 -56 49 -70 35 -16 41 -26 24 -37 -9 -6 -75 5 -162 26 -91 22
-116 28 -158 38 -25 5 -61 14 -80 18 -45 11 -47 37 -2 41 41 4 44 12 35 86 -9
65 -9 65 -108 86 -22 5 -52 12 -66 15 -23 6 -30 1 -59 -44 -43 -67 -43 -81 -1
-96 37 -12 49 -29 31 -40 -6 -3 -62 6 -125 21 -96 22 -115 30 -115 45 0 15 8
19 38 19 32 0 44 7 78 43 59 62 199 244 274 355 19 28 36 52 37 52 1 0 43 -10
95 -21z m912 -90 c48 -13 86 -53 87 -93 3 -104 -16 -137 -91 -159 l-45 -14 35
-15 c60 -26 81 -59 112 -172 10 -39 19 -52 41 -60 15 -6 27 -18 27 -28 0 -16
-12 -18 -119 -18 -66 0 -131 4 -144 9 -30 12 -45 54 -48 136 -3 85 -7 94 -46
104 -60 17 -64 11 -61 -102 3 -99 4 -101 28 -107 14 -3 25 -12 25 -20 0 -13
-30 -15 -185 -15 -168 0 -185 2 -188 18 -2 11 3 17 16 17 11 0 24 6 30 13 6 7
11 97 12 227 3 270 5 247 -30 255 -27 6 -39 23 -25 36 9 9 530 -2 569 -12z"/>
<path d="M9207 7563 c-4 -3 -7 -12 -7 -20 0 -7 -9 -32 -19 -56 -39 -85 -39
-84 31 -89 35 -3 65 -4 67 -2 2 2 -6 37 -19 77 -12 39 -24 78 -26 85 -4 13
-17 16 -27 5z"/>
<path d="M7682 7330 c-12 -5 -25 -16 -28 -24 -7 -17 74 -176 90 -176 7 0 29
16 50 35 36 33 38 38 33 78 -10 74 -77 114 -145 87z"/>
<path d="M11095 7061 c-59 -36 -180 -193 -214 -278 -22 -54 -17 -104 14 -130
62 -54 137 -8 244 147 92 133 112 210 66 255 -29 30 -68 32 -110 6z"/>
<path d="M8895 6788 c-336 -43 -681 -159 -959 -323 -53 -31 -96 -58 -96 -61 0
-2 612 -4 1360 -4 748 0 1360 3 1360 8 0 20 -263 159 -400 211 -47 18 -94 37
-105 41 -97 42 -366 105 -550 129 -94 13 -509 12 -610 -1z"/>
<path d="M9912 5809 c-143 -18 -316 -75 -462 -152 -75 -39 -142 -84 -148 -99
-2 -4 -8 -8 -14 -8 -6 0 -19 -10 -29 -21 -19 -22 -18 -22 45 -88 129 -134 198
-237 279 -421 28 -61 63 -183 76 -255 6 -38 16 -95 21 -126 6 -30 10 -88 10
-129 0 -41 -4 -99 -10 -129 -5 -31 -15 -87 -21 -126 -18 -102 -54 -210 -115
-340 -46 -96 -137 -227 -226 -320 -42 -45 -74 -86 -70 -91 11 -16 132 -99 193
-133 210 -115 414 -167 649 -165 257 1 480 66 695 202 108 68 243 190 313 282
15 19 29 37 33 40 31 28 142 234 177 330 32 87 43 130 72 294 20 118 8 314
-30 476 -6 25 -14 57 -17 73 -3 15 -9 30 -14 33 -5 3 -9 12 -9 21 0 25 -84
195 -130 264 -166 247 -377 417 -640 517 -185 71 -424 98 -628 71z m458 -56
c19 -3 59 -19 89 -35 30 -15 59 -28 66 -28 20 0 40 -32 59 -95 10 -33 27 -72
38 -88 42 -58 -7 -93 -90 -64 -57 21 -62 21 -62 3 0 -8 -4 -16 -8 -18 -5 -1
-12 -18 -15 -35 -6 -29 -4 -33 15 -33 12 0 33 -11 47 -24 27 -24 80 -46 113
-46 26 0 118 -72 115 -90 -3 -17 -63 -16 -84 2 -10 8 -13 5 -13 -10 0 -12 9
-23 20 -27 30 -9 24 -35 -9 -41 -20 -4 -34 -17 -47 -43 -11 -20 -27 -47 -36
-60 -10 -13 -18 -37 -18 -53 0 -32 -21 -78 -44 -97 -19 -16 -21 -62 -4 -79 9
-9 8 -17 -2 -37 -16 -29 -40 -33 -40 -7 0 10 -6 27 -14 37 -13 19 -16 19 -87
2 -62 -15 -76 -22 -86 -44 -18 -37 -17 -43 11 -78 l23 -29 42 19 c36 16 44 17
52 4 5 -8 6 -27 3 -43 -6 -28 -5 -29 29 -22 42 8 62 -11 54 -53 -3 -15 -1 -33
4 -38 14 -14 90 -4 111 14 23 21 112 46 116 33 2 -5 13 -10 23 -10 30 0 74
-26 144 -85 35 -30 70 -55 78 -55 18 0 53 -38 65 -70 8 -20 23 -30 73 -44 79
-24 95 -34 120 -80 26 -50 24 -64 -18 -125 -52 -73 -50 -70 -73 -123 -14 -32
-35 -58 -65 -80 -25 -18 -67 -50 -92 -70 -26 -20 -78 -53 -117 -73 -39 -20
-91 -54 -115 -76 -24 -22 -57 -43 -72 -46 -41 -8 -115 -77 -150 -139 -17 -29
-36 -58 -44 -64 -9 -7 -12 -22 -9 -40 12 -56 -38 -47 -71 13 -17 32 -17 40 -5
79 7 24 13 50 11 59 -1 9 12 28 29 42 16 14 30 32 30 40 0 8 18 46 40 83 22
38 40 75 40 83 0 8 15 44 34 80 48 95 53 133 21 175 -18 24 -25 45 -25 78 0
25 -4 58 -9 74 -5 16 -14 55 -21 86 -12 54 -12 58 14 101 30 53 31 57 12 82
-11 16 -17 17 -29 7 -12 -11 -22 -10 -49 1 -18 8 -39 21 -47 30 -7 10 -21 17
-30 17 -9 0 -38 14 -66 30 -31 18 -64 30 -87 30 -27 0 -47 8 -73 31 -19 17
-35 37 -35 44 0 7 -15 28 -32 47 -18 19 -41 45 -50 59 l-17 24 0 -27 c-1 -16
-5 -28 -11 -28 -10 0 -54 65 -74 109 -6 14 -25 49 -41 76 -17 28 -30 65 -31
85 -2 99 -4 108 -24 113 -20 5 -29 37 -10 37 12 0 13 37 1 44 -4 3 -14 26 -21
51 -7 25 -23 56 -36 70 -22 24 -27 25 -133 22 -81 -1 -112 -6 -116 -15 -3 -8
-13 -11 -24 -7 -10 3 -23 -1 -30 -9 -7 -8 -19 -12 -27 -9 -20 8 -17 23 5 23
10 0 24 7 31 15 7 8 21 15 31 15 10 0 21 5 24 10 3 6 22 10 40 10 33 0 34 1
28 30 -5 26 1 37 38 78 44 48 119 85 149 74 8 -3 35 -18 59 -34 25 -15 56 -28
70 -28 15 0 53 -14 86 -30 66 -33 122 -39 132 -14 3 8 1 20 -6 27 -16 16 -14
57 4 57 8 0 29 -12 45 -26 16 -15 40 -32 52 -38 14 -8 23 -21 22 -34 -1 -30
26 -25 37 6 8 20 4 25 -36 42 -24 10 -56 32 -71 49 -15 17 -35 33 -45 36 -11
4 -19 14 -19 24 0 10 -7 24 -15 31 -16 13 -29 4 -53 -38 -15 -27 2 -29 21 -2
17 24 27 16 27 -22 0 -18 -5 -28 -15 -28 -23 0 -18 -16 13 -45 23 -21 25 -27
12 -35 -29 -18 -90 8 -90 40 0 24 -11 32 -27 19 -10 -9 -17 -8 -28 1 -21 17
-19 37 4 50 16 8 21 6 26 -10 10 -33 28 -24 21 11 -5 25 0 36 30 67 26 26 34
43 31 60 -5 25 25 62 50 62 21 0 15 -21 -12 -42 -14 -11 -23 -24 -19 -29 3 -5
28 14 55 42 50 51 100 74 139 62 8 -3 31 -7 50 -10z m-714 -89 c34 -13 43 -22
53 -53 13 -45 0 -96 -30 -112 -21 -11 -39 -5 -39 14 0 13 -223 18 -236 4 -10
-10 -82 -9 -88 2 -9 14 16 38 68 65 27 14 56 32 64 38 23 20 114 56 142 57 13
1 43 -6 66 -15z m1092 -64 c23 -17 42 -35 42 -40 0 -19 -30 -23 -53 -7 -13 8
-37 17 -53 19 -48 5 -42 57 7 58 9 0 35 -14 57 -30z m-200 -924 c39 -13 42
-36 4 -36 -22 0 -48 11 -81 36 -10 8 14 24 28 18 9 -4 31 -12 49 -18z m134
-22 c27 -14 29 -18 15 -26 -28 -15 -76 7 -77 35 0 12 29 8 62 -9z m78 -39 c0
-8 -4 -15 -9 -15 -13 0 -22 16 -14 24 11 11 23 6 23 -9z"/>
<path d="M10258 5580 c-25 -15 -22 -30 5 -30 42 0 116 -27 148 -54 49 -42 70
-33 26 12 -20 21 -37 43 -37 49 0 17 -9 20 -70 27 -33 4 -62 2 -72 -4z"/>
<path d="M10320 5365 c0 -17 -25 -20 -35 -5 -10 16 -25 12 -25 -7 0 -9 -7 -24
-15 -33 -9 -10 -13 -24 -10 -32 7 -17 73 -48 103 -48 11 0 24 -4 27 -10 8 -13
25 -13 25 0 0 17 -34 90 -42 90 -5 0 -8 14 -8 30 0 17 -4 30 -10 30 -5 0 -10
-7 -10 -15z"/>
<path d="M10582 5188 c6 -18 28 -21 28 -4 0 9 -7 16 -16 16 -9 0 -14 -5 -12
-12z"/>
<path d="M10354 5146 c-8 -22 3 -33 18 -18 9 9 9 15 0 24 -9 9 -13 7 -18 -6z"/>
<path d="M10365 5080 c-3 -5 -1 -10 4 -10 6 0 11 5 11 10 0 6 -2 10 -4 10 -3
0 -8 -4 -11 -10z"/>
<path d="M8180 5794 c-317 -58 -513 -153 -715 -346 -199 -190 -323 -409 -382
-675 -22 -100 -25 -406 -4 -503 80 -382 318 -707 652 -891 94 -51 232 -103
350 -130 125 -29 392 -32 514 -5 170 37 367 119 476 198 l42 30 -24 19 c-20
15 -22 21 -13 36 9 14 24 18 72 18 47 0 66 4 79 19 17 18 17 18 -30 11 -62 -8
-87 10 -87 67 0 25 -5 41 -15 44 -8 4 -22 21 -31 39 -18 38 -35 43 -124 35
-110 -9 -120 0 -95 86 30 104 54 135 120 162 33 13 69 32 81 43 11 10 41 26
67 35 28 10 47 22 47 31 0 11 -7 14 -26 9 -18 -5 -32 -2 -44 9 -10 9 -30 20
-46 24 -15 4 -30 13 -32 20 -4 11 6 12 44 7 27 -4 53 -12 59 -17 5 -5 22 -9
37 -9 18 0 28 -5 28 -15 0 -15 27 -20 76 -16 28 2 38 -24 19 -53 -13 -19 -13
-25 1 -44 20 -29 37 -17 60 44 15 40 36 56 48 36 2 -4 7 -46 11 -92 3 -47 9
-116 12 -153 3 -45 1 -73 -6 -80 -14 -14 -14 -27 -1 -27 6 0 10 7 10 15 0 8 4
15 8 15 13 0 127 226 148 292 15 51 16 61 4 84 -13 23 -13 27 4 40 10 7 23 15
28 16 26 9 47 335 29 442 -15 89 -30 161 -43 206 -17 56 -80 212 -101 250 -11
19 -29 52 -41 73 -11 21 -27 45 -35 55 -9 9 -36 43 -60 75 -68 90 -265 267
-296 267 -4 0 15 -20 42 -45 26 -25 51 -45 54 -45 15 0 61 -49 79 -85 24 -47
26 -75 5 -75 -10 0 -15 10 -15 33 0 26 -4 33 -21 34 -35 3 -94 37 -104 61 -9
21 -35 31 -35 13 0 -5 -13 -14 -30 -21 -16 -7 -30 -18 -30 -24 0 -15 41 -41
62 -38 17 3 98 -63 98 -79 0 -5 9 -18 20 -29 11 -11 20 -27 20 -35 0 -10 10
-15 30 -15 31 0 37 -13 21 -39 -6 -9 -4 -22 5 -36 23 -36 21 -122 -5 -153 -12
-15 -26 -37 -31 -49 -5 -13 -16 -23 -25 -23 -8 0 -15 -7 -15 -15 0 -8 -7 -15
-15 -15 -21 0 -11 64 16 102 10 15 19 36 19 47 0 11 5 23 10 26 13 8 13 85 0
85 -12 0 -41 55 -38 72 2 6 -4 13 -13 15 -13 3 -18 -7 -23 -41 -4 -25 -5 -50
-2 -55 3 -5 -1 -22 -9 -37 -19 -36 -19 -52 0 -88 20 -37 19 -49 -5 -71 -19
-17 -20 -17 -29 6 -11 29 -48 65 -58 56 -4 -4 0 -13 9 -20 18 -14 51 -119 50
-158 -1 -39 -31 -98 -58 -116 -14 -9 -24 -25 -24 -38 0 -27 -28 -42 -36 -20
-4 8 -11 15 -16 15 -10 0 -8 -19 8 -114 6 -34 3 -41 -22 -62 -36 -29 -42 -29
-70 -3 -47 44 -55 -10 -9 -61 12 -14 25 -37 29 -52 7 -31 18 -35 36 -13 7 8
18 15 26 15 7 0 29 14 48 31 36 31 74 36 68 8 -2 -8 -6 -30 -9 -49 -3 -19 -11
-42 -18 -50 -7 -8 -15 -23 -19 -34 -4 -13 -12 -17 -29 -12 -12 3 -32 6 -44 6
-14 0 -25 9 -31 28 -6 15 -11 21 -11 15 -3 -50 -78 38 -100 117 -20 72 -35
100 -52 100 -15 0 -52 48 -71 93 -11 27 -46 20 -92 -18 -33 -27 -46 -46 -60
-95 -18 -59 -18 -61 0 -75 15 -11 17 -18 8 -32 -15 -24 -44 -29 -44 -8 0 8 -6
18 -14 21 -23 9 -96 128 -96 156 0 15 -15 40 -40 66 -36 38 -43 42 -90 42 -49
0 -59 -7 -40 -26 6 -6 3 -21 -10 -42 -14 -23 -43 -43 -102 -72 -114 -55 -158
-52 -158 11 0 15 -11 41 -24 57 -27 31 -56 104 -56 140 0 31 -24 23 -28 -9 -3
-30 40 -154 63 -179 9 -10 25 -33 34 -52 20 -36 42 -45 75 -30 67 32 80 22 57
-46 -22 -63 -41 -91 -130 -185 -46 -49 -65 -76 -63 -91 2 -12 6 -56 9 -99 4
-73 3 -79 -22 -109 -23 -28 -26 -37 -20 -79 6 -39 4 -49 -13 -60 -10 -8 -22
-25 -25 -39 -11 -38 -27 -54 -91 -88 -48 -25 -63 -29 -74 -19 -16 13 -75 131
-112 222 -13 33 -34 79 -47 102 -18 34 -21 47 -13 68 16 41 12 63 -21 133 -16
35 -34 84 -38 109 -8 41 -22 60 -61 82 -8 5 -51 11 -95 15 -44 4 -85 12 -92
18 -7 6 -13 25 -13 42 0 18 -4 36 -9 42 -4 5 -18 37 -29 71 -15 46 -18 71 -12
95 5 18 13 62 19 97 9 55 17 72 59 120 26 31 93 86 147 124 96 65 99 69 97
101 -2 23 5 47 23 76 22 35 30 41 51 36 70 -17 68 -18 98 24 21 28 38 40 55
41 14 0 20 3 14 6 -7 2 -13 13 -13 24 0 10 -6 19 -14 19 -38 0 -29 38 15 64
29 17 31 17 50 0 18 -17 20 -16 42 4 50 47 62 14 22 -55 -27 -49 -25 -51 30
-23 26 13 50 18 68 14 29 -6 39 12 12 22 -19 8 -19 38 0 57 7 8 36 18 62 22
26 4 69 18 96 32 40 22 51 24 72 15 14 -7 35 -12 45 -12 12 0 33 -18 51 -42
l30 -43 70 -1 c39 0 72 3 75 8 8 12 42 10 46 -3 4 -11 17 -4 128 67 36 23 65
33 112 38 160 15 172 18 188 53 18 39 53 53 109 46 23 -3 41 -3 41 1 0 7 -116
65 -190 94 -137 54 -246 74 -430 77 -96 2 -186 2 -200 -1z m-302 -176 c-4 -27
-52 -45 -74 -28 -13 11 -13 15 2 31 10 11 30 19 46 19 24 0 29 -4 26 -22z
m1252 -823 c10 -12 10 -21 1 -41 -16 -35 -35 -25 -39 19 -3 40 15 50 38 22z
m-18 -163 c-2 -18 2 -35 12 -45 21 -21 20 -34 -4 -47 -18 -9 -20 -8 -20 15 0
16 -6 25 -15 25 -11 0 -15 11 -15 43 0 50 6 60 30 47 12 -6 15 -18 12 -38z
m51 -144 c7 -52 -2 -63 -39 -51 -35 12 -43 33 -14 40 13 4 19 11 16 20 -7 18
1 33 18 33 8 0 16 -17 19 -42z m-327 -133 c30 -30 54 -59 54 -64 0 -19 51 -61
75 -61 14 0 28 -7 32 -15 8 -23 -1 -27 -40 -20 -40 8 -96 56 -148 127 -23 32
-41 47 -56 48 -16 0 -23 6 -23 20 0 15 7 20 26 20 19 0 42 -16 80 -55z m364
36 c0 -26 18 -37 26 -17 11 28 51 19 63 -14 9 -28 12 -29 37 -18 24 11 29 10
53 -17 15 -17 43 -42 62 -57 35 -26 89 -118 89 -151 0 -10 -7 -17 -15 -17 -8
0 -15 4 -15 8 0 16 -77 59 -91 51 -9 -5 -30 3 -56 19 -35 23 -42 32 -43 60 0
28 -5 35 -36 48 -20 9 -49 25 -65 36 -41 31 -75 14 -76 -37 -1 -44 -3 -45 -39
-48 -22 -2 -30 3 -38 26 -13 35 17 78 63 91 17 5 31 12 31 17 0 11 29 39 41
39 5 0 9 -9 9 -19z m375 -105 c16 -43 14 -66 -6 -66 -5 0 -9 11 -9 25 0 30
-11 32 -28 5 -7 -11 -17 -20 -22 -20 -16 0 -11 37 6 44 11 4 14 13 10 31 -5
20 -3 25 13 25 14 0 24 -13 36 -44z m-1529 -183 c19 -26 17 -78 -6 -123 -11
-22 -20 -55 -20 -74 0 -44 -23 -53 -50 -19 -15 20 -20 40 -20 89 0 53 4 67 27
96 44 53 50 56 69 31z"/>
<path d="M9010 5610 c0 -5 5 -10 11 -10 5 0 7 5 4 10 -3 6 -8 10 -11 10 -2 0
-4 -4 -4 -10z"/>
<path d="M6936 5418 c-7 -18 -29 -67 -48 -108 -104 -225 -161 -425 -210 -725
-17 -105 -17 -563 0 -660 7 -38 17 -97 23 -130 6 -33 14 -76 19 -95 5 -19 14
-57 21 -85 44 -184 148 -439 247 -610 134 -233 271 -407 463 -593 394 -378
939 -633 1469 -687 36 -3 74 -8 85 -11 40 -9 -62 34 -135 57 -200 62 -602 245
-727 330 -23 16 -44 29 -47 29 -14 0 -238 155 -324 223 -406 325 -681 742
-761 1157 -6 30 -16 78 -22 105 -9 36 -13 307 -16 943 -3 539 -8 892 -13 892
-6 0 -16 -15 -24 -32z"/>
<path d="M11447 4593 c-6 -867 -10 -960 -46 -1093 -5 -19 -17 -62 -26 -95 -19
-71 -35 -120 -65 -195 -118 -302 -446 -723 -722 -930 -281 -210 -725 -425
-1073 -518 -100 -26 -131 -36 -139 -44 -14 -11 4 -10 125 7 522 73 913 239
1306 553 214 171 446 437 585 673 239 405 358 837 358 1304 0 407 -82 760
-263 1133 -17 34 -31 62 -32 62 -2 0 -5 -386 -8 -857z"/>
<path d="M8023 5411 c-33 -28 -28 -31 17 -14 22 9 40 20 40 25 0 14 -34 8 -57
-11z"/>
<path d="M7700 5379 c0 -5 5 -7 10 -4 6 3 10 8 10 11 0 2 -4 4 -10 4 -5 0 -10
-5 -10 -11z"/>
<path d="M7960 5345 c-13 -14 -34 -25 -48 -25 -14 0 -22 -5 -20 -12 7 -19 43
-21 58 -3 7 8 21 15 30 15 10 0 25 3 33 6 13 5 13 8 -4 25 -24 24 -21 24 -49
-6z"/>
<path d="M7549 5117 c-14 -15 -29 -20 -55 -19 -26 2 -35 -1 -32 -10 3 -8 31
-15 76 -19 39 -3 79 -12 89 -20 20 -16 60 -39 68 -39 10 0 5 39 -6 45 -6 4 -8
13 -5 21 9 23 -27 52 -72 57 -35 4 -47 1 -63 -16z"/>
<path d="M7755 5078 c23 -76 21 -80 -49 -102 -18 -6 -18 -8 4 -31 13 -14 34
-25 47 -25 13 0 46 -12 73 -26 81 -42 114 -9 40 40 -22 14 -40 31 -40 36 0 5
-10 9 -22 7 -21 -2 -23 3 -26 55 -2 40 -7 58 -19 62 -12 5 -14 2 -8 -16z"/>
<path d="M7957 5043 c-14 -13 -6 -31 16 -36 12 -2 30 -8 40 -12 29 -12 21 30
-8 43 -30 14 -39 15 -48 5z"/>
<path d="M8126 4998 c-10 -30 -14 -88 -7 -88 17 0 31 27 31 62 0 36 -16 53
-24 26z"/>
<path d="M8110 4740 c0 -5 11 -10 25 -10 14 0 25 5 25 10 0 6 -11 10 -25 10
-14 0 -25 -4 -25 -10z"/>
<path d="M7830 2932 c0 -20 17 -39 53 -57 29 -14 137 -144 137 -164 0 -9 13
-32 29 -51 28 -34 30 -35 112 -37 88 -2 110 -8 302 -88 71 -29 182 -65 202
-65 3 0 5 9 5 20 0 11 7 20 15 20 8 0 15 -3 15 -7 0 -5 18 -26 40 -48 21 -22
39 -46 40 -53 0 -7 7 -24 16 -37 9 -13 13 -29 9 -35 -11 -18 -35 -11 -45 15
-13 33 -18 32 -36 -10 -33 -81 -9 -157 67 -205 88 -57 170 -54 196 8 43 104
-34 272 -126 272 -32 0 -43 6 -69 39 -52 64 -38 83 21 31 26 -22 45 -30 74
-30 41 0 66 -18 131 -98 46 -56 288 -178 382 -193 104 -16 236 11 395 83 50
22 110 43 134 47 24 3 46 11 48 17 7 20 -38 27 -167 29 -99 1 -140 6 -200 24
-109 33 -113 35 -255 92 -130 51 -130 51 -240 51 -60 -1 -146 -3 -190 -4 -73
-3 -80 -1 -80 16 0 28 55 44 155 45 87 1 275 23 365 42 28 5 73 14 100 18 125
21 292 80 388 138 38 23 86 44 108 48 39 7 51 26 27 42 -7 4 -80 8 -163 8 -82
1 -192 7 -242 14 -129 16 -310 3 -378 -29 -85 -38 -184 -108 -264 -184 -57
-54 -92 -79 -136 -95 -60 -23 -73 -23 -215 -6 -14 2 -29 4 -33 4 -21 2 41 111
64 111 5 0 9 -11 9 -25 0 -14 -4 -25 -10 -25 -5 0 -10 -4 -10 -9 0 -19 83 -28
129 -14 59 18 84 35 110 77 51 82 46 123 -20 142 -100 30 -192 11 -246 -50
-31 -37 -34 -45 -29 -84 5 -34 2 -46 -15 -63 -12 -12 -28 -19 -37 -16 -10 3
-48 14 -85 25 -37 11 -75 26 -85 34 -9 7 -28 19 -42 24 -71 30 -129 64 -218
127 -53 38 -117 78 -142 89 -25 10 -57 26 -72 34 -26 14 -28 14 -28 -4z m227
-143 c56 -54 72 -129 27 -129 -18 0 -37 46 -28 72 4 15 -4 31 -32 59 -51 53
-21 51 33 -2z m1703 -4 c0 -8 -23 -15 -66 -19 -37 -4 -80 -14 -96 -22 -45 -23
-133 -44 -186 -44 -55 0 -247 -39 -341 -69 -119 -39 -121 -19 -3 35 154 70
379 122 544 125 35 1 77 4 93 8 36 9 55 4 55 -14z m-595 -374 c22 -4 74 -23
115 -41 119 -52 259 -89 343 -90 73 0 73 -19 1 -37 -35 -9 -74 -10 -134 -4
-88 8 -140 28 -276 104 -33 19 -77 37 -97 41 -20 4 -39 12 -43 18 -9 13 17 29
36 22 8 -3 33 -9 55 -13z"/>
<path d="M10175 2712 c-56 -20 -98 -26 -205 -32 -121 -6 -143 -10 -215 -39
-93 -38 -183 -67 -240 -76 -22 -3 -47 -11 -55 -16 -19 -13 208 -3 265 11 55
14 215 22 215 10 0 -5 -26 -16 -57 -25 -32 -9 -75 -22 -95 -27 -21 -6 -116
-11 -213 -12 -112 -1 -174 -5 -172 -11 2 -5 30 -18 63 -29 32 -10 68 -22 79
-26 28 -12 68 -20 154 -31 83 -12 196 -1 275 26 78 27 191 108 326 233 14 13
37 26 53 29 18 4 27 12 27 24 0 29 -114 24 -205 -9z"/>
<path d="M12025 5860 c-11 -5 -36 -9 -56 -9 -20 -1 -38 -4 -42 -7 -9 -9 46
-113 60 -114 7 0 16 6 20 14 4 8 29 37 56 64 26 28 47 53 47 56 0 9 -62 6 -85
-4z"/>
<path d="M12095 3535 c-36 -19 -64 -53 -65 -78 0 -20 21 -31 100 -51 30 -8 89
-24 130 -35 199 -54 218 -58 234 -49 21 12 21 71 0 104 -53 80 -318 153 -399
109z"/>
<path d="M6491 2854 c-63 -20 -202 -100 -259 -150 -57 -50 -69 -81 -47 -124
28 -54 84 -52 205 6 212 101 299 204 224 263 -30 24 -60 25 -123 5z"/>
<path d="M8365 1259 c-22 -33 -45 -65 -52 -71 -26 -21 -12 -35 54 -52 36 -9
68 -14 71 -11 3 2 0 30 -7 61 -6 32 -11 72 -11 90 0 18 -4 35 -8 38 -4 2 -25
-22 -47 -55z"/>
<path d="M9211 1320 c-8 -4 -11 -40 -9 -106 l3 -99 35 3 c50 4 77 20 91 54 14
34 6 94 -16 118 -19 21 -88 41 -104 30z"/>
</g>
</svg>
